<svg width="593" height="546" viewBox="0 0 593 546" fill="none" xmlns="http://www.w3.org/2000/svg">
<path d="M220.279 171C220.279 171.66 220.279 172.32 220.279 173C218.352 174.571 216.414 176.042 214.404 177.5C204.224 185.124 196.214 194.105 188.279 204C177.671 217.011 166.694 228.14 152.944 237.813C150.742 239.383 148.605 241.032 146.467 242.688C143.279 245 143.279 245 141.279 245C142.691 241.956 144.391 239.428 146.404 236.75C151.674 229.31 155.409 221.061 159.3 212.845C166.89 196.827 166.89 196.827 173.279 191C174.242 190.101 174.242 190.101 175.225 189.184C185.361 180.524 206.689 171 220.279 171Z" fill="url(#paint0_linear_253_33630)"/>
<path d="M449.719 0C450.379 0 451.039 0 451.719 0C448.844 13.2699 440.617 24.0416 431.719 34C431.287 34.4886 430.854 34.9771 430.408 35.4805C419.851 47.2352 406.765 55.9914 391.719 61C390.132 61.5337 390.132 61.5337 388.512 62.0781C362.048 69.7624 332.801 68.46 305.514 68.553C245.606 67.1808 245.606 67.1808 194.719 95C193.992 95.6329 193.265 96.2659 192.516 96.918C185.654 103.236 180.813 111.261 175.719 119C175.24 119.72 174.761 120.44 174.267 121.182C168.25 130.219 162.651 139.322 157.719 149C157.389 149 157.059 149 156.719 149C156.617 141.584 156.547 134.169 156.5 126.753C156.48 124.236 156.452 121.719 156.418 119.203C156.06 92.7179 156.06 92.7179 160.719 80C161.194 78.4858 161.668 76.9715 162.141 75.457C166.299 64.0489 171.829 52.5913 181.719 45C182.379 45 183.039 45 183.719 45C183.719 44.34 183.719 43.68 183.719 43C197.699 31.0954 214.866 25.0348 232.719 22C234.593 21.681 234.593 21.681 236.505 21.3555C249.402 19.3701 262.258 18.8564 275.282 18.8004C278.771 18.7846 282.26 18.7569 285.748 18.7301C288.54 18.7087 291.331 18.6887 294.122 18.6687C327.348 18.4216 360.419 17.7335 393.56 15.1649C395.578 15.0108 397.597 14.8687 399.617 14.7275C414.765 13.6527 438.668 11.6039 449.719 0Z" fill="#43B1E8"/>
<path d="M395.719 85C396.049 85.99 396.379 86.98 396.719 88C396.059 88 395.399 88 394.719 88C394.461 88.5646 394.203 89.1292 393.938 89.7109C383.595 109.135 362.846 121.704 342.635 128.724C338.061 130.116 333.406 131.083 328.719 132C326.96 132.362 325.201 132.724 323.441 133.086C309.796 135.822 296.639 137.078 282.719 137.438C238.557 138.8 202.8 143.864 171.287 177.262C166.751 182.289 161.757 187.923 158.719 194C158.059 194 157.399 194 156.719 194C158.743 180.289 160.922 167.041 165.719 154C166.109 152.926 166.5 151.852 166.902 150.746C171.429 139.126 178.132 129.956 186.719 121C187.294 120.374 187.869 119.747 188.461 119.102C201.704 105.098 219.874 96.7759 239.109 95.8899C241.834 95.8281 244.556 95.8107 247.281 95.8125C248.337 95.8119 249.392 95.8112 250.48 95.8105C257.147 95.8532 263.738 96.1833 270.382 96.7185C287.279 98.0682 304.157 98.2293 321.098 98.2468C323.135 98.25 325.173 98.2571 327.211 98.2651C351.827 98.3406 374.021 97.8312 395.719 85Z" fill="#3CA7E5"/>
<path d="M169.256 383.472C163.337 383.472 158.279 382.256 154.081 379.824C149.882 377.456 146.682 374.192 144.48 370.032C142.346 365.936 141.279 361.328 141.279 356.208C141.279 353.84 141.555 351.408 142.105 348.912C142.656 346.416 143.482 343.824 144.583 341.136C145.065 340.048 145.615 339.28 146.235 338.832C146.854 338.32 147.68 338.192 148.712 338.448L153.668 339.696C154.769 340.016 155.491 340.368 155.836 340.752C156.18 341.072 156.214 341.648 155.939 342.48C155.044 344.592 154.39 346.576 153.977 348.432C153.564 350.224 153.358 351.92 153.358 353.52C153.358 356.656 154.012 359.408 155.319 361.776C156.696 364.08 158.623 365.872 161.101 367.152C163.647 368.432 166.744 369.072 170.392 369.072H172.457C175.967 369.072 179.064 368.336 181.748 366.864C184.501 365.456 186.669 363.344 188.252 360.528C189.835 357.648 190.626 354.192 190.626 350.16V293.04C190.626 292.4 190.833 291.888 191.246 291.504C191.727 291.056 192.312 290.832 193.001 290.832L200.425 298C201.182 298 203.238 300.552 203.651 301C203.651 300.36 203.109 309.496 203.651 301L203.737 339.504C203.737 342.192 204.15 344.24 204.976 345.648C205.871 346.992 207.178 347.888 208.899 348.336C210.689 348.784 212.891 349.008 215.506 349.008C216.539 349.008 249.355 347.54 249.355 348.5L250.43 359.5C250.43 361.42 250.9 362.256 248.835 362.256C246.082 362.256 208.624 363.056 206.215 362.544C203.875 361.968 201.879 361.04 200.227 359.76C199.264 364.816 197.371 369.104 194.549 372.624C191.796 376.144 188.389 378.832 184.329 380.688C180.337 382.544 176.001 383.472 171.321 383.472H169.256Z" fill="url(#paint1_linear_253_33630)"/>
<path d="M343.804 362.64C339.124 362.64 335.133 362.256 331.829 361.488C328.594 360.72 325.635 359.504 322.951 357.84L332.655 346.416C333.825 346.864 334.96 347.248 336.062 347.568C337.232 347.824 338.539 348.016 339.985 348.144C341.499 348.272 343.288 348.336 345.353 348.336C346.385 348.336 346.902 348.816 346.902 349.776V359.76C346.902 361.68 345.869 362.64 343.804 362.64ZM250.968 362.256C250.348 362.256 249.18 362.512 248.835 362.256C248.422 362.064 248.827 361.552 248.827 360.72V350.736C248.827 349.84 248.804 348.82 249.355 348.5C249.905 348.116 250.96 348.336 251.924 348.336C254.539 348.336 256.501 348.144 257.808 347.76C259.116 347.376 259.976 346.544 260.389 345.264C260.871 343.92 261.112 341.968 261.112 339.408V332.88C261.112 331.152 261.972 330.288 263.693 330.288H271.126C272.847 330.288 273.707 331.152 273.707 332.88V338.352C273.707 340.912 273.982 342.928 274.533 344.4C275.083 345.808 276.116 346.832 277.63 347.472C279.213 348.048 281.45 348.336 284.34 348.336H309.22C314.382 348.336 318.305 347.664 320.989 346.32C323.673 344.976 325.015 343.024 325.015 340.464C325.015 338.288 324.017 336.528 322.022 335.184C320.094 333.776 317.479 333.104 314.176 333.168C310.941 333.168 307.741 333.936 304.575 335.472C301.478 336.944 298.552 338.96 295.8 341.52C293.115 344.016 290.706 346.896 288.573 350.16L278.249 349.68C281.14 343.408 284.615 338.16 288.676 333.936C292.737 329.648 297.107 326.384 301.787 324.144C306.536 321.904 311.285 320.784 316.034 320.784C320.645 320.784 324.43 321.68 327.39 323.472C330.418 325.2 332.689 327.472 334.203 330.288C335.718 333.04 336.475 336.048 336.475 339.312C336.475 344.304 335.201 348.56 332.655 352.08C330.108 355.536 326.461 358.16 321.712 359.952C316.963 361.744 311.182 362.64 304.368 362.64H284.753C280.486 362.64 276.77 362.032 273.604 360.816C270.507 359.6 268.098 357.424 266.377 354.288C265.069 357.488 263.005 359.696 260.183 360.912C257.361 362.064 254.34 362.256 250.968 362.256Z" fill="url(#paint2_linear_253_33630)"/>
<path d="M346.93 362.64C345.897 362.64 345.381 362.16 345.381 361.2V351.216C345.381 349.296 346.414 348.336 348.478 348.336C352.195 348.336 354.741 347.632 356.118 346.224C357.494 344.752 358.182 342.192 358.182 338.544V329.808C358.182 328.144 359.043 327.312 360.763 327.312H368.713C370.433 327.312 371.294 328.144 371.294 329.808V338.544C371.294 340.912 371.638 342.832 372.326 344.304C373.014 345.712 374.219 346.736 375.939 347.376C377.66 348.016 380.034 348.336 383.062 348.336C384.095 348.336 384.611 348.816 384.611 349.776V359.76C384.611 361.68 383.579 362.64 381.514 362.64C376.765 362.64 372.704 362.032 369.332 360.816C366.028 359.6 363.585 357.392 362.002 354.192C360.832 357.264 358.871 359.44 356.118 360.72C353.434 362 350.371 362.64 346.93 362.64ZM359.215 381.168C358.871 381.488 358.389 381.616 357.77 381.552C357.219 381.552 356.703 381.392 356.221 381.072L351.575 376.656C351.162 376.272 350.956 375.792 350.956 375.216C350.956 374.704 351.162 374.256 351.575 373.872L356.221 369.552C356.703 369.104 357.219 368.88 357.77 368.88C358.32 368.88 358.802 369.104 359.215 369.552L363.861 373.872C364.342 374.256 364.583 374.736 364.583 375.312C364.652 375.888 364.446 376.368 363.964 376.752L359.215 381.168ZM373.565 381.168C373.221 381.488 372.739 381.616 372.119 381.552C371.569 381.552 371.087 381.392 370.674 381.072L365.822 376.656C365.478 376.272 365.271 375.792 365.203 375.216C365.203 374.704 365.409 374.256 365.822 373.872L370.674 369.552C371.087 369.104 371.569 368.88 372.119 368.88C372.67 368.88 373.117 369.104 373.461 369.552L378.21 373.872C378.623 374.256 378.83 374.736 378.83 375.312C378.899 375.888 378.727 376.368 378.314 376.752L373.565 381.168Z" fill="url(#paint3_linear_253_33630)"/>
<path d="M403.499 362.64C402.398 362.64 381.936 362.96 381.592 362.64C381.592 363.152 381.179 362.256 381.592 362.64C381.592 362.128 380.545 360.08 380.545 359.76V358C380.545 356.848 377.434 348.828 383.062 348.336C383.407 347.888 402.329 348.336 403.499 348.336H426.418C430.547 348.336 433.713 347.76 435.916 346.608C438.187 345.456 439.632 343.568 440.252 340.944C440.94 338.256 441.009 334.64 440.458 330.096L443.452 333.168C442.075 335.28 440.011 336.944 437.258 338.16C434.505 339.312 431.407 339.888 427.966 339.888C424.319 339.888 421.118 339.216 418.365 337.872C415.681 336.464 413.616 334.512 412.171 332.016C410.795 329.52 410.106 326.64 410.106 323.376C410.175 319.856 411.104 316.688 412.894 313.872C414.683 310.992 417.058 308.752 420.017 307.152C423.045 305.488 426.349 304.656 429.928 304.656C434.333 304.656 438.152 305.744 441.387 307.92C444.622 310.032 447.134 313.008 448.923 316.848C450.782 320.688 451.711 325.072 451.711 330C451.78 334.416 451.436 338.608 450.678 342.576C449.921 346.48 448.545 349.936 446.549 352.944C444.553 355.952 441.731 358.32 438.084 360.048C434.505 361.776 429.893 362.64 424.25 362.64H403.499ZM428.792 328.464C430.719 328.464 432.715 328.176 434.78 327.6C436.845 327.024 438.634 326.224 440.148 325.2C439.735 323.664 438.978 322.192 437.877 320.784C436.845 319.376 435.537 318.224 433.954 317.328C432.44 316.432 430.685 315.984 428.689 315.984C426.968 315.984 425.489 316.336 424.25 317.04C423.08 317.68 422.185 318.512 421.566 319.536C420.946 320.56 420.637 321.552 420.637 322.512C420.637 324.56 421.462 326.064 423.114 327.024C424.766 327.984 426.659 328.464 428.792 328.464Z" fill="url(#paint4_linear_253_33630)"/>
<path d="M441.309 277C441.309 277.205 441.309 277.41 441.309 277.622C440.627 278.11 439.942 278.567 439.23 279.02C435.627 281.39 432.792 284.181 429.984 287.257C426.23 291.301 422.345 294.76 417.478 297.766C416.699 298.254 415.942 298.767 415.186 299.281C414.057 300 414.057 300 413.35 300C413.849 299.054 414.451 298.268 415.163 297.436C417.028 295.123 418.351 292.56 419.727 290.006C422.414 285.027 422.414 285.027 424.675 283.216C425.016 282.937 425.016 282.937 425.364 282.652C428.951 279.96 436.499 277 441.309 277Z" fill="url(#paint5_linear_253_33630)"/>
<path d="M21.2605 447.475C23.1264 447.474 23.1264 447.474 25.0301 447.474C29.1199 447.475 33.2096 447.482 37.2993 447.489C40.1436 447.491 42.9879 447.492 45.8322 447.493C53.3022 447.497 60.772 447.506 68.2419 447.516C75.8709 447.526 83.4999 447.53 91.129 447.535C106.086 447.545 121.043 447.561 136 447.58C136 448.501 136 449.423 136 450.372C122.073 450.394 108.145 450.41 94.2179 450.42C87.748 450.425 81.2782 450.431 74.8084 450.442C68.5428 450.452 62.2773 450.458 56.0117 450.46C53.6436 450.462 51.2755 450.465 48.9074 450.47C32.5538 450.504 16.3189 450.137 0 449.441C0 449.134 0 448.827 0 448.511C7.16798 447.572 13.9879 447.454 21.2605 447.475Z" fill="#5784A0"/>
<path d="M178.22 466.472C177.887 466.472 177.603 466.356 177.37 466.122C177.137 465.889 177.02 465.606 177.02 465.272V432.722C177.02 432.356 177.137 432.056 177.37 431.822C177.603 431.589 177.887 431.472 178.22 431.472H199.92C200.287 431.472 200.587 431.589 200.82 431.822C201.053 432.056 201.17 432.356 201.17 432.722V436.222C201.17 436.589 201.053 436.889 200.82 437.122C200.587 437.322 200.287 437.422 199.92 437.422H183.87V446.922H198.92C199.287 446.922 199.587 447.039 199.82 447.272C200.053 447.506 200.17 447.806 200.17 448.172V451.672C200.17 452.006 200.053 452.289 199.82 452.522C199.587 452.756 199.287 452.872 198.92 452.872H183.87V465.272C183.87 465.606 183.753 465.889 183.52 466.122C183.287 466.356 182.987 466.472 182.62 466.472H178.22ZM234.869 466.472C234.535 466.472 234.252 466.356 234.019 466.122C233.785 465.889 233.669 465.606 233.669 465.272V432.672C233.669 432.339 233.785 432.056 234.019 431.822C234.252 431.589 234.535 431.472 234.869 431.472H239.569C239.935 431.472 240.219 431.589 240.419 431.822C240.652 432.056 240.769 432.339 240.769 432.672V465.272C240.769 465.606 240.652 465.889 240.419 466.122C240.219 466.356 239.935 466.472 239.569 466.472H234.869ZM288.112 466.972C285.012 466.972 282.412 466.522 280.312 465.622C278.245 464.689 276.662 463.489 275.562 462.022C274.495 460.522 273.928 458.956 273.862 457.322C273.862 457.022 273.962 456.772 274.162 456.572C274.362 456.372 274.612 456.272 274.912 456.272H279.362C279.795 456.272 280.112 456.372 280.312 456.572C280.545 456.739 280.745 456.956 280.912 457.222C281.112 457.856 281.495 458.489 282.062 459.122C282.628 459.722 283.395 460.222 284.362 460.622C285.362 461.022 286.612 461.222 288.112 461.222C290.512 461.222 292.295 460.822 293.462 460.022C294.662 459.222 295.262 458.139 295.262 456.772C295.262 455.806 294.945 455.039 294.312 454.472C293.678 453.872 292.695 453.339 291.362 452.872C290.062 452.372 288.328 451.856 286.162 451.322C283.662 450.722 281.562 450.006 279.862 449.172C278.195 448.306 276.928 447.222 276.062 445.922C275.228 444.622 274.812 442.972 274.812 440.972C274.812 439.039 275.328 437.322 276.362 435.822C277.428 434.322 278.928 433.139 280.862 432.272C282.828 431.406 285.162 430.972 287.862 430.972C290.028 430.972 291.945 431.272 293.612 431.872C295.278 432.439 296.662 433.206 297.762 434.172C298.862 435.106 299.695 436.122 300.262 437.222C300.862 438.289 301.178 439.339 301.212 440.372C301.212 440.639 301.112 440.889 300.912 441.122C300.745 441.322 300.495 441.422 300.162 441.422H295.512C295.245 441.422 294.978 441.356 294.712 441.222C294.445 441.089 294.228 440.839 294.062 440.472C293.862 439.439 293.212 438.556 292.112 437.822C291.012 437.089 289.595 436.722 287.862 436.722C286.062 436.722 284.612 437.056 283.512 437.722C282.412 438.389 281.862 439.422 281.862 440.822C281.862 441.756 282.128 442.539 282.662 443.172C283.228 443.772 284.112 444.306 285.312 444.772C286.545 445.239 288.162 445.739 290.162 446.272C292.995 446.906 295.312 447.639 297.112 448.472C298.912 449.306 300.228 450.372 301.062 451.672C301.895 452.939 302.312 454.556 302.312 456.522C302.312 458.722 301.712 460.606 300.512 462.172C299.345 463.706 297.695 464.889 295.562 465.722C293.428 466.556 290.945 466.972 288.112 466.972ZM331.925 466.472C331.658 466.472 331.408 466.372 331.175 466.172C330.975 465.972 330.875 465.722 330.875 465.422C330.875 465.289 330.908 465.139 330.975 464.972L343.025 432.722C343.125 432.389 343.308 432.106 343.575 431.872C343.875 431.606 344.275 431.472 344.775 431.472H350.225C350.725 431.472 351.108 431.606 351.375 431.872C351.641 432.106 351.841 432.389 351.975 432.722L364.025 464.972C364.058 465.139 364.075 465.289 364.075 465.422C364.075 465.722 363.975 465.972 363.775 466.172C363.575 466.372 363.341 466.472 363.075 466.472H358.725C358.258 466.472 357.908 466.372 357.675 466.172C357.475 465.939 357.341 465.722 357.275 465.522L354.925 459.422H340.075L337.725 465.522C337.658 465.722 337.508 465.939 337.275 466.172C337.075 466.372 336.741 466.472 336.275 466.472H331.925ZM341.825 453.672H353.175L347.475 438.222L341.825 453.672ZM395.976 466.472C395.643 466.472 395.359 466.356 395.126 466.122C394.893 465.889 394.776 465.606 394.776 465.272V432.672C394.776 432.339 394.893 432.056 395.126 431.822C395.359 431.589 395.643 431.472 395.976 431.472H400.626C400.959 431.472 401.243 431.589 401.476 431.822C401.709 432.056 401.826 432.339 401.826 432.672V460.522H417.676C418.043 460.522 418.343 460.639 418.576 460.872C418.809 461.106 418.926 461.406 418.926 461.772V465.272C418.926 465.606 418.809 465.889 418.576 466.122C418.343 466.356 418.043 466.472 417.676 466.472H395.976Z" fill="white"/>
<path d="M457 447.588C473.128 447.566 489.256 447.55 505.384 447.54C512.872 447.535 520.361 447.528 527.85 447.518C535.077 447.508 542.305 447.502 549.532 447.5C552.289 447.498 555.046 447.495 557.804 447.49C561.666 447.483 565.528 447.482 569.39 447.483C570.529 447.479 571.669 447.476 572.843 447.472C578.414 447.479 583.584 447.661 589 448.514C589 448.819 589 449.125 589 449.44C580.893 450.166 573.075 450.496 564.895 450.471C563.132 450.471 563.132 450.471 561.335 450.471C557.494 450.471 553.653 450.464 549.813 450.456C547.133 450.455 544.453 450.453 541.774 450.452C534.752 450.449 527.731 450.44 520.71 450.43C513.533 450.42 506.355 450.416 499.178 450.411C485.119 450.401 471.059 450.385 457 450.366C457 449.449 457 448.532 457 447.588Z" fill="#5986A3"/>
<path d="M3.73099 536.472C3.49099 536.472 3.28699 536.388 3.11899 536.22C2.95099 536.052 2.86699 535.848 2.86699 535.608V512.172C2.86699 511.908 2.95099 511.692 3.11899 511.524C3.28699 511.356 3.49099 511.272 3.73099 511.272H19.355C19.619 511.272 19.835 511.356 20.003 511.524C20.171 511.692 20.255 511.908 20.255 512.172V514.692C20.255 514.956 20.171 515.172 20.003 515.34C19.835 515.484 19.619 515.556 19.355 515.556H7.79899V522.396H18.635C18.899 522.396 19.115 522.48 19.283 522.648C19.451 522.816 19.535 523.032 19.535 523.296V525.816C19.535 526.056 19.451 526.26 19.283 526.428C19.115 526.596 18.899 526.68 18.635 526.68H7.79899V535.608C7.79899 535.848 7.71499 536.052 7.54699 536.22C7.37899 536.388 7.16299 536.472 6.89899 536.472H3.73099ZM44.3913 536.832C42.3033 536.832 40.4913 536.484 38.9553 535.788C37.4193 535.068 36.2313 533.976 35.3913 532.512C34.5513 531.024 34.1313 529.128 34.1313 526.824V512.172C34.1313 511.908 34.2153 511.692 34.3833 511.524C34.5513 511.356 34.7553 511.272 34.9953 511.272H38.2713C38.5353 511.272 38.7393 511.356 38.8833 511.524C39.0513 511.692 39.1353 511.908 39.1353 512.172V526.824C39.1353 528.792 39.6033 530.256 40.5393 531.216C41.4753 532.152 42.7593 532.62 44.3913 532.62C46.0233 532.62 47.2953 532.152 48.2073 531.216C49.1433 530.256 49.6113 528.792 49.6113 526.824V512.172C49.6113 511.908 49.6953 511.692 49.8633 511.524C50.0313 511.356 50.2473 511.272 50.5113 511.272H53.7513C54.0153 511.272 54.2193 511.356 54.3633 511.524C54.5313 511.692 54.6153 511.908 54.6153 512.172V526.824C54.6153 529.128 54.1953 531.024 53.3553 532.512C52.5393 533.976 51.3633 535.068 49.8273 535.788C48.3153 536.484 46.5033 536.832 44.3913 536.832ZM71.2619 536.472C71.0219 536.472 70.8179 536.388 70.6499 536.22C70.4819 536.052 70.3979 535.848 70.3979 535.608V512.136C70.3979 511.896 70.4819 511.692 70.6499 511.524C70.8179 511.356 71.0219 511.272 71.2619 511.272H74.6099C74.8499 511.272 75.0539 511.356 75.2219 511.524C75.3899 511.692 75.4739 511.896 75.4739 512.136V532.188H86.8859C87.1499 532.188 87.3659 532.272 87.5339 532.44C87.7019 532.608 87.7859 532.824 87.7859 533.088V535.608C87.7859 535.848 87.7019 536.052 87.5339 536.22C87.3659 536.388 87.1499 536.472 86.8859 536.472H71.2619ZM101.617 536.472C101.377 536.472 101.173 536.388 101.005 536.22C100.837 536.052 100.753 535.848 100.753 535.608V512.136C100.753 511.896 100.837 511.692 101.005 511.524C101.173 511.356 101.377 511.272 101.617 511.272H104.965C105.205 511.272 105.409 511.356 105.577 511.524C105.745 511.692 105.829 511.896 105.829 512.136V532.188H117.241C117.505 532.188 117.721 532.272 117.889 532.44C118.057 532.608 118.141 532.824 118.141 533.088V535.608C118.141 535.848 118.057 536.052 117.889 536.22C117.721 536.388 117.505 536.472 117.241 536.472H101.617ZM149.163 536.832C146.931 536.832 145.059 536.508 143.547 535.86C142.059 535.188 140.919 534.324 140.127 533.268C139.359 532.188 138.951 531.06 138.903 529.884C138.903 529.668 138.975 529.488 139.119 529.344C139.263 529.2 139.443 529.128 139.659 529.128H142.863C143.175 529.128 143.403 529.2 143.547 529.344C143.715 529.464 143.859 529.62 143.979 529.812C144.123 530.268 144.399 530.724 144.807 531.18C145.215 531.612 145.767 531.972 146.463 532.26C147.183 532.548 148.083 532.692 149.163 532.692C150.891 532.692 152.175 532.404 153.015 531.828C153.879 531.252 154.311 530.472 154.311 529.488C154.311 528.792 154.083 528.24 153.627 527.832C153.171 527.4 152.463 527.016 151.503 526.68C150.567 526.32 149.319 525.948 147.759 525.564C145.959 525.132 144.447 524.616 143.223 524.016C142.023 523.392 141.111 522.612 140.487 521.676C139.887 520.74 139.587 519.552 139.587 518.112C139.587 516.72 139.959 515.484 140.703 514.404C141.471 513.324 142.551 512.472 143.943 511.848C145.359 511.224 147.039 510.912 148.983 510.912C150.543 510.912 151.923 511.128 153.123 511.56C154.323 511.968 155.319 512.52 156.111 513.216C156.903 513.888 157.503 514.62 157.911 515.412C158.343 516.18 158.571 516.936 158.595 517.68C158.595 517.872 158.523 518.052 158.379 518.22C158.259 518.364 158.079 518.436 157.839 518.436H154.491C154.299 518.436 154.107 518.388 153.915 518.292C153.723 518.196 153.567 518.016 153.447 517.752C153.303 517.008 152.835 516.372 152.043 515.844C151.251 515.316 150.231 515.052 148.983 515.052C147.687 515.052 146.643 515.292 145.851 515.772C145.059 516.252 144.663 516.996 144.663 518.004C144.663 518.676 144.855 519.24 145.239 519.696C145.647 520.128 146.283 520.512 147.147 520.848C148.035 521.184 149.199 521.544 150.639 521.928C152.679 522.384 154.347 522.912 155.643 523.512C156.939 524.112 157.887 524.88 158.487 525.816C159.087 526.728 159.387 527.892 159.387 529.308C159.387 530.892 158.955 532.248 158.091 533.376C157.251 534.48 156.063 535.332 154.527 535.932C152.991 536.532 151.203 536.832 149.163 536.832ZM179.428 536.472C179.188 536.472 178.984 536.388 178.816 536.22C178.648 536.052 178.564 535.848 178.564 535.608V515.7H171.904C171.664 515.7 171.46 515.616 171.292 515.448C171.124 515.28 171.04 515.076 171.04 514.836V512.172C171.04 511.908 171.124 511.692 171.292 511.524C171.46 511.356 171.664 511.272 171.904 511.272H190.264C190.528 511.272 190.744 511.356 190.912 511.524C191.08 511.692 191.164 511.908 191.164 512.172V514.836C191.164 515.076 191.08 515.28 190.912 515.448C190.744 515.616 190.528 515.7 190.264 515.7H183.64V535.608C183.64 535.848 183.556 536.052 183.388 536.22C183.22 536.388 183.004 536.472 182.74 536.472H179.428ZM201.828 536.472C201.636 536.472 201.456 536.4 201.288 536.256C201.144 536.112 201.072 535.932 201.072 535.716C201.072 535.62 201.096 535.512 201.144 535.392L209.82 512.172C209.892 511.932 210.024 511.728 210.216 511.56C210.432 511.368 210.72 511.272 211.08 511.272H215.004C215.364 511.272 215.64 511.368 215.832 511.56C216.024 511.728 216.168 511.932 216.264 512.172L224.94 535.392C224.964 535.512 224.976 535.62 224.976 535.716C224.976 535.932 224.904 536.112 224.76 536.256C224.616 536.4 224.448 536.472 224.256 536.472H221.124C220.788 536.472 220.536 536.4 220.368 536.256C220.224 536.088 220.128 535.932 220.08 535.788L218.388 531.396H207.696L206.004 535.788C205.956 535.932 205.848 536.088 205.68 536.256C205.536 536.4 205.296 536.472 204.96 536.472H201.828ZM208.956 527.256H217.128L213.024 516.132L208.956 527.256ZM247.494 536.832C245.262 536.832 243.366 536.448 241.806 535.68C240.27 534.888 239.094 533.772 238.278 532.332C237.462 530.868 237.006 529.116 236.91 527.076C236.886 526.092 236.874 525.036 236.874 523.908C236.874 522.78 236.886 521.7 236.91 520.668C237.006 518.652 237.462 516.912 238.278 515.448C239.118 513.984 240.306 512.868 241.842 512.1C243.402 511.308 245.286 510.912 247.494 510.912C249.126 510.912 250.59 511.128 251.886 511.56C253.182 511.992 254.286 512.592 255.198 513.36C256.11 514.104 256.818 514.98 257.322 515.988C257.826 516.996 258.09 518.088 258.114 519.264C258.138 519.48 258.066 519.66 257.898 519.804C257.754 519.948 257.574 520.02 257.358 520.02H253.938C253.674 520.02 253.458 519.96 253.29 519.84C253.122 519.696 253.002 519.468 252.93 519.156C252.546 517.572 251.886 516.492 250.95 515.916C250.014 515.34 248.85 515.052 247.458 515.052C245.85 515.052 244.566 515.508 243.606 516.42C242.646 517.308 242.13 518.784 242.058 520.848C241.986 522.816 241.986 524.832 242.058 526.896C242.13 528.96 242.646 530.448 243.606 531.36C244.566 532.248 245.85 532.692 247.458 532.692C248.85 532.692 250.014 532.404 250.95 531.828C251.886 531.228 252.546 530.148 252.93 528.588C253.002 528.252 253.122 528.024 253.29 527.904C253.458 527.784 253.674 527.724 253.938 527.724H257.358C257.574 527.724 257.754 527.796 257.898 527.94C258.066 528.084 258.138 528.264 258.114 528.48C258.09 529.656 257.826 530.748 257.322 531.756C256.818 532.764 256.11 533.652 255.198 534.42C254.286 535.164 253.182 535.752 251.886 536.184C250.59 536.616 249.126 536.832 247.494 536.832ZM273.634 536.472C273.394 536.472 273.19 536.388 273.022 536.22C272.854 536.052 272.77 535.848 272.77 535.608V512.172C272.77 511.908 272.854 511.692 273.022 511.524C273.19 511.356 273.394 511.272 273.634 511.272H276.802C277.066 511.272 277.282 511.356 277.45 511.524C277.618 511.692 277.702 511.908 277.702 512.172V520.596L285.838 511.92C285.934 511.8 286.09 511.668 286.306 511.524C286.546 511.356 286.858 511.272 287.242 511.272H290.806C290.998 511.272 291.166 511.344 291.31 511.488C291.478 511.632 291.562 511.812 291.562 512.028C291.562 512.196 291.514 512.34 291.418 512.46L281.518 523.332L292.102 535.248C292.222 535.392 292.282 535.548 292.282 535.716C292.282 535.932 292.198 536.112 292.03 536.256C291.886 536.4 291.718 536.472 291.526 536.472H287.818C287.41 536.472 287.086 536.388 286.846 536.22C286.63 536.028 286.486 535.896 286.414 535.824L277.702 526.284V535.608C277.702 535.848 277.618 536.052 277.45 536.22C277.282 536.388 277.066 536.472 276.802 536.472H273.634ZM306.521 536.472C306.281 536.472 306.077 536.388 305.909 536.22C305.741 536.052 305.657 535.848 305.657 535.608V512.172C305.657 511.908 305.741 511.692 305.909 511.524C306.077 511.356 306.281 511.272 306.521 511.272H315.305C317.729 511.272 319.721 511.644 321.281 512.388C322.865 513.132 324.053 514.236 324.845 515.7C325.661 517.164 326.081 518.952 326.105 521.064C326.153 522.12 326.177 523.056 326.177 523.872C326.177 524.688 326.153 525.612 326.105 526.644C326.057 528.876 325.649 530.724 324.881 532.188C324.113 533.628 322.949 534.708 321.389 535.428C319.853 536.124 317.885 536.472 315.485 536.472H306.521ZM310.661 532.332H315.305C316.649 532.332 317.741 532.14 318.581 531.756C319.421 531.372 320.033 530.76 320.417 529.92C320.825 529.056 321.041 527.928 321.065 526.536C321.089 525.816 321.101 525.192 321.101 524.664C321.125 524.112 321.125 523.572 321.101 523.044C321.101 522.492 321.089 521.868 321.065 521.172C321.017 519.204 320.525 517.752 319.589 516.816C318.653 515.88 317.165 515.412 315.125 515.412H310.661V532.332ZM342.22 536.472C341.98 536.472 341.776 536.388 341.608 536.22C341.44 536.052 341.356 535.848 341.356 535.608V512.172C341.356 511.908 341.44 511.692 341.608 511.524C341.776 511.356 341.98 511.272 342.22 511.272H358.06C358.324 511.272 358.54 511.356 358.708 511.524C358.876 511.692 358.96 511.908 358.96 512.172V514.548C358.96 514.788 358.876 514.992 358.708 515.16C358.54 515.328 358.324 515.412 358.06 515.412H346.216V521.784H357.268C357.532 521.784 357.748 521.868 357.916 522.036C358.084 522.18 358.168 522.384 358.168 522.648V524.88C358.168 525.144 358.084 525.36 357.916 525.528C357.748 525.672 357.532 525.744 357.268 525.744H346.216V532.332H358.348C358.612 532.332 358.828 532.416 358.996 532.584C359.164 532.752 359.248 532.968 359.248 533.232V535.608C359.248 535.848 359.164 536.052 358.996 536.22C358.828 536.388 358.612 536.472 358.348 536.472H342.22ZM380.531 536.472C380.147 536.472 379.847 536.376 379.631 536.184C379.415 535.992 379.259 535.752 379.163 535.464L371.459 512.352C371.411 512.232 371.387 512.124 371.387 512.028C371.387 511.812 371.459 511.632 371.603 511.488C371.747 511.344 371.927 511.272 372.143 511.272H375.311C375.647 511.272 375.899 511.368 376.067 511.56C376.259 511.728 376.379 511.896 376.427 512.064L382.511 530.604L388.559 512.064C388.631 511.896 388.751 511.728 388.919 511.56C389.111 511.368 389.375 511.272 389.711 511.272H392.879C393.071 511.272 393.239 511.344 393.383 511.488C393.551 511.632 393.635 511.812 393.635 512.028C393.635 512.124 393.611 512.232 393.563 512.352L385.859 535.464C385.763 535.752 385.607 535.992 385.391 536.184C385.175 536.376 384.875 536.472 384.491 536.472H380.531ZM407.747 536.472C407.507 536.472 407.303 536.388 407.135 536.22C406.967 536.052 406.883 535.848 406.883 535.608V512.172C406.883 511.908 406.967 511.692 407.135 511.524C407.303 511.356 407.507 511.272 407.747 511.272H423.587C423.851 511.272 424.067 511.356 424.235 511.524C424.403 511.692 424.487 511.908 424.487 512.172V514.548C424.487 514.788 424.403 514.992 424.235 515.16C424.067 515.328 423.851 515.412 423.587 515.412H411.743V521.784H422.795C423.059 521.784 423.275 521.868 423.443 522.036C423.611 522.18 423.695 522.384 423.695 522.648V524.88C423.695 525.144 423.611 525.36 423.443 525.528C423.275 525.672 423.059 525.744 422.795 525.744H411.743V532.332H423.875C424.139 532.332 424.355 532.416 424.523 532.584C424.691 532.752 424.775 532.968 424.775 533.232V535.608C424.775 535.848 424.691 536.052 424.523 536.22C424.355 536.388 424.139 536.472 423.875 536.472H407.747ZM440.528 536.472C440.288 536.472 440.084 536.388 439.916 536.22C439.748 536.052 439.664 535.848 439.664 535.608V512.136C439.664 511.896 439.748 511.692 439.916 511.524C440.084 511.356 440.288 511.272 440.528 511.272H443.876C444.116 511.272 444.32 511.356 444.488 511.524C444.656 511.692 444.74 511.896 444.74 512.136V532.188H456.152C456.416 532.188 456.632 532.272 456.8 532.44C456.968 532.608 457.052 532.824 457.052 533.088V535.608C457.052 535.848 456.968 536.052 456.8 536.22C456.632 536.388 456.416 536.472 456.152 536.472H440.528ZM479.703 536.832C477.567 536.832 475.731 536.484 474.195 535.788C472.659 535.068 471.459 533.976 470.595 532.512C469.731 531.024 469.263 529.176 469.191 526.968C469.167 525.936 469.155 524.916 469.155 523.908C469.155 522.9 469.167 521.868 469.191 520.812C469.263 518.628 469.743 516.804 470.631 515.34C471.519 513.876 472.731 512.772 474.267 512.028C475.827 511.284 477.639 510.912 479.703 510.912C481.767 510.912 483.579 511.284 485.139 512.028C486.699 512.772 487.923 513.876 488.811 515.34C489.699 516.804 490.179 518.628 490.251 520.812C490.299 521.868 490.323 522.9 490.323 523.908C490.323 524.916 490.299 525.936 490.251 526.968C490.179 529.176 489.711 531.024 488.847 532.512C487.983 533.976 486.771 535.068 485.211 535.788C483.675 536.484 481.839 536.832 479.703 536.832ZM479.703 532.692C481.263 532.692 482.535 532.236 483.519 531.324C484.503 530.388 485.031 528.876 485.103 526.788C485.151 525.732 485.175 524.76 485.175 523.872C485.175 522.96 485.151 521.988 485.103 520.956C485.055 519.564 484.791 518.436 484.311 517.572C483.855 516.684 483.231 516.048 482.439 515.664C481.647 515.256 480.735 515.052 479.703 515.052C478.695 515.052 477.795 515.256 477.003 515.664C476.211 516.048 475.575 516.684 475.095 517.572C474.639 518.436 474.387 519.564 474.339 520.956C474.315 521.988 474.303 522.96 474.303 523.872C474.303 524.76 474.315 525.732 474.339 526.788C474.411 528.876 474.939 530.388 475.923 531.324C476.907 532.236 478.167 532.692 479.703 532.692ZM506.301 536.472C506.061 536.472 505.857 536.388 505.689 536.22C505.521 536.052 505.437 535.848 505.437 535.608V512.172C505.437 511.908 505.521 511.692 505.689 511.524C505.857 511.356 506.061 511.272 506.301 511.272H515.949C517.821 511.272 519.453 511.572 520.845 512.172C522.237 512.748 523.317 513.636 524.085 514.836C524.853 516.012 525.237 517.488 525.237 519.264C525.237 521.064 524.853 522.552 524.085 523.728C523.317 524.88 522.237 525.744 520.845 526.32C519.453 526.896 517.821 527.184 515.949 527.184H510.585V535.608C510.585 535.848 510.501 536.052 510.333 536.22C510.189 536.388 509.985 536.472 509.721 536.472H506.301ZM510.513 523.188H515.769C517.161 523.188 518.229 522.864 518.973 522.216C519.717 521.544 520.089 520.56 520.089 519.264C520.089 518.064 519.741 517.104 519.045 516.384C518.349 515.64 517.257 515.268 515.769 515.268H510.513V523.188ZM539.609 536.472C539.369 536.472 539.165 536.388 538.997 536.22C538.829 536.052 538.745 535.848 538.745 535.608V512.172C538.745 511.908 538.829 511.692 538.997 511.524C539.165 511.356 539.369 511.272 539.609 511.272H555.449C555.713 511.272 555.929 511.356 556.097 511.524C556.265 511.692 556.349 511.908 556.349 512.172V514.548C556.349 514.788 556.265 514.992 556.097 515.16C555.929 515.328 555.713 515.412 555.449 515.412H543.605V521.784H554.657C554.921 521.784 555.137 521.868 555.305 522.036C555.473 522.18 555.557 522.384 555.557 522.648V524.88C555.557 525.144 555.473 525.36 555.305 525.528C555.137 525.672 554.921 525.744 554.657 525.744H543.605V532.332H555.737C556.001 532.332 556.217 532.416 556.385 532.584C556.553 532.752 556.637 532.968 556.637 533.232V535.608C556.637 535.848 556.553 536.052 556.385 536.22C556.217 536.388 556.001 536.472 555.737 536.472H539.609ZM572.39 536.472C572.15 536.472 571.946 536.388 571.778 536.22C571.61 536.052 571.526 535.848 571.526 535.608V512.172C571.526 511.908 571.61 511.692 571.778 511.524C571.946 511.356 572.15 511.272 572.39 511.272H581.714C584.618 511.272 586.91 511.944 588.59 513.288C590.27 514.632 591.11 516.588 591.11 519.156C591.11 520.932 590.666 522.408 589.778 523.584C588.914 524.76 587.75 525.612 586.286 526.14L591.542 535.32C591.614 535.464 591.65 535.596 591.65 535.716C591.65 535.932 591.566 536.112 591.398 536.256C591.254 536.4 591.086 536.472 590.894 536.472H587.618C587.21 536.472 586.898 536.364 586.682 536.148C586.466 535.932 586.298 535.716 586.178 535.5L581.534 526.968H576.53V535.608C576.53 535.848 576.446 536.052 576.278 536.22C576.134 536.388 575.93 536.472 575.666 536.472H572.39ZM576.53 522.9H581.606C583.07 522.9 584.162 522.576 584.882 521.928C585.602 521.256 585.962 520.32 585.962 519.12C585.962 517.92 585.602 516.984 584.882 516.312C584.186 515.616 583.094 515.268 581.606 515.268H576.53V522.9Z" fill="url(#paint6_linear_253_33630)"/>
<defs>
<linearGradient id="paint0_linear_253_33630" x1="217.999" y1="168" x2="140.999" y2="249.5" gradientUnits="userSpaceOnUse">
<stop stop-color="#43B1E8"/>
<stop offset="1" stop-color="#2677D5"/>
</linearGradient>
<linearGradient id="paint1_linear_253_33630" x1="169.726" y1="329.16" x2="437.496" y2="329.16" gradientUnits="userSpaceOnUse">
<stop stop-color="#2677D5"/>
<stop offset="1" stop-color="#43B1E8"/>
</linearGradient>
<linearGradient id="paint2_linear_253_33630" x1="169.726" y1="329.16" x2="437.496" y2="329.16" gradientUnits="userSpaceOnUse">
<stop stop-color="#2677D5"/>
<stop offset="1" stop-color="#43B1E8"/>
</linearGradient>
<linearGradient id="paint3_linear_253_33630" x1="169.726" y1="329.16" x2="437.496" y2="329.16" gradientUnits="userSpaceOnUse">
<stop stop-color="#2677D5"/>
<stop offset="1" stop-color="#43B1E8"/>
</linearGradient>
<linearGradient id="paint4_linear_253_33630" x1="169.726" y1="329.16" x2="437.496" y2="329.16" gradientUnits="userSpaceOnUse">
<stop stop-color="#2677D5"/>
<stop offset="1" stop-color="#43B1E8"/>
</linearGradient>
<linearGradient id="paint5_linear_253_33630" x1="427.33" y1="277" x2="427.33" y2="300" gradientUnits="userSpaceOnUse">
<stop stop-color="#43B1E8"/>
<stop offset="1" stop-color="#2677D5"/>
</linearGradient>
<linearGradient id="paint6_linear_253_33630" x1="0" y1="523.972" x2="593" y2="523.972" gradientUnits="userSpaceOnUse">
<stop stop-color="#43B1E8"/>
<stop offset="1" stop-color="#2677D5"/>
</linearGradient>
</defs>
</svg>
